{
    "asset" : {
        "generator" : "Khronos glTF Blender I/O v1.8.19",
        "version" : "2.0"
    },
    "scene" : 0,
    "scenes" : [
        {
            "name" : "Scene",
            "nodes" : [
                0,
                1,
                2
            ]
        }
    ],
    "nodes" : [
        {
            "mesh" : 0,
            "name" : "LowBody",
            "scale" : [
                0.02539999969303608,
                0.02539999969303608,
                0.02539999969303608
            ],
            "translation" : [
                -0.008695689961314201,
                -0.006242593750357628,
                -0.0003445525944698602
            ]
        },
        {
            "mesh" : 1,
            "name" : "LowInterior",
            "scale" : [
                0.02539999969303608,
                0.02539999969303608,
                0.02539999969303608
            ],
            "translation" : [
                0,
                6.74817419052124,
                -9.364665031433105
            ]
        },
        {
            "mesh" : 2,
            "name" : "LowGlass",
            "scale" : [
                0.02539999969303608,
                0.02539999969303608,
                0.02539999969303608
            ],
            "translation" : [
                -0.008869807235896587,
                -0.006234563421458006,
                0.0013418836751952767
            ]
        }
    ],
    "materials" : [
        {
            "doubleSided" : true,
            "name" : "Body",
            "pbrMetallicRoughness" : {
                "baseColorFactor" : [
                    0.5879999995231628,
                    0.5879999995231628,
                    0.5879999995231628,
                    1
                ],
                "roughnessFactor" : 0.858578622341156
            }
        },
        {
            "doubleSided" : true,
            "name" : "Interior",
            "pbrMetallicRoughness" : {
                "baseColorFactor" : [
                    0.5882353186607361,
                    0.5882353186607361,
                    0.5882353186607361,
                    1
                ],
                "roughnessFactor" : 0.858578622341156
            }
        },
        {
            "doubleSided" : true,
            "name" : "Glass",
            "pbrMetallicRoughness" : {
                "baseColorFactor" : [
                    0.5882353186607361,
                    0.5882353186607361,
                    0.5882353186607361,
                    1
                ],
                "roughnessFactor" : 0.858578622341156
            }
        }
    ],
    "meshes" : [
        {
            "name" : "Mesh",
            "primitives" : [
                {
                    "attributes" : {
                        "POSITION" : 0,
                        "NORMAL" : 1,
                        "TEXCOORD_0" : 2
                    },
                    "indices" : 3,
                    "material" : 0
                }
            ]
        },
        {
            "name" : "Mesh.001",
            "primitives" : [
                {
                    "attributes" : {
                        "POSITION" : 4,
                        "NORMAL" : 5,
                        "TEXCOORD_0" : 6
                    },
                    "indices" : 7,
                    "material" : 1
                }
            ]
        },
        {
            "name" : "Mesh.002",
            "primitives" : [
                {
                    "attributes" : {
                        "POSITION" : 8,
                        "NORMAL" : 9,
                        "TEXCOORD_0" : 10
                    },
                    "indices" : 11,
                    "material" : 2
                }
            ]
        }
    ],
    "accessors" : [
        {
            "bufferView" : 0,
            "componentType" : 5126,
            "count" : 5791,
            "max" : [
                88.1780014038086,
                174.97320556640625,
                272.5093994140625
            ],
            "min" : [
                -106.44950103759766,
                32.842899322509766,
                -323.8187255859375
            ],
            "type" : "VEC3"
        },
        {
            "bufferView" : 1,
            "componentType" : 5126,
            "count" : 5791,
            "type" : "VEC3"
        },
        {
            "bufferView" : 2,
            "componentType" : 5126,
            "count" : 5791,
            "type" : "VEC2"
        },
        {
            "bufferView" : 3,
            "componentType" : 5123,
            "count" : 21780,
            "type" : "SCALAR"
        },
        {
            "bufferView" : 4,
            "componentType" : 5126,
            "count" : 5401,
            "max" : [
                81.18180084228516,
                -92.90856170654297,
                586.9437255859375
            ],
            "min" : [
                -100.2029037475586,
                -259.8386535644531,
                150.5904998779297
            ],
            "type" : "VEC3"
        },
        {
            "bufferView" : 5,
            "componentType" : 5126,
            "count" : 5401,
            "type" : "VEC3"
        },
        {
            "bufferView" : 6,
            "componentType" : 5126,
            "count" : 5401,
            "type" : "VEC2"
        },
        {
            "bufferView" : 7,
            "componentType" : 5123,
            "count" : 20223,
            "type" : "SCALAR"
        },
        {
            "bufferView" : 8,
            "componentType" : 5126,
            "count" : 554,
            "max" : [
                80.82510375976562,
                157.01710510253906,
                246.841796875
            ],
            "min" : [
                -99.09660339355469,
                74.47059631347656,
                -294.8100891113281
            ],
            "type" : "VEC3"
        },
        {
            "bufferView" : 9,
            "componentType" : 5126,
            "count" : 554,
            "type" : "VEC3"
        },
        {
            "bufferView" : 10,
            "componentType" : 5126,
            "count" : 554,
            "type" : "VEC2"
        },
        {
            "bufferView" : 11,
            "componentType" : 5123,
            "count" : 1968,
            "type" : "SCALAR"
        }
    ],
    "bufferViews" : [
        {
            "buffer" : 0,
            "byteLength" : 69492,
            "byteOffset" : 0
        },
        {
            "buffer" : 0,
            "byteLength" : 69492,
            "byteOffset" : 69492
        },
        {
            "buffer" : 0,
            "byteLength" : 46328,
            "byteOffset" : 138984
        },
        {
            "buffer" : 0,
            "byteLength" : 43560,
            "byteOffset" : 185312
        },
        {
            "buffer" : 0,
            "byteLength" : 64812,
            "byteOffset" : 228872
        },
        {
            "buffer" : 0,
            "byteLength" : 64812,
            "byteOffset" : 293684
        },
        {
            "buffer" : 0,
            "byteLength" : 43208,
            "byteOffset" : 358496
        },
        {
            "buffer" : 0,
            "byteLength" : 40446,
            "byteOffset" : 401704
        },
        {
            "buffer" : 0,
            "byteLength" : 6648,
            "byteOffset" : 442152
        },
        {
            "buffer" : 0,
            "byteLength" : 6648,
            "byteOffset" : 448800
        },
        {
            "buffer" : 0,
            "byteLength" : 4432,
            "byteOffset" : 455448
        },
        {
            "buffer" : 0,
            "byteLength" : 3936,
            "byteOffset" : 459880
        }
    ],
    "buffers" : [
        {
            "byteLength" : 463816,
            "uri" : "data:application/octet-stream;base64,"
        }
    ]
}
